<?xml version="1.0" standalone="no"?>
<!DOCTYPE svg PUBLIC "-//W3C//DTD SVG 20010904//EN"
 "http://www.w3.org/TR/2001/REC-SVG-20010904/DTD/svg10.dtd">
<svg version="1.0" xmlns="http://www.w3.org/2000/svg"
 width="720.000000pt" height="720.000000pt" viewBox="0 0 720.000000 720.000000"
 preserveAspectRatio="xMidYMid meet">
<metadata>
Created by potrace 1.11, written by Peter Selinger 2001-2013
</metadata>
<g transform="translate(0.000000,720.000000) scale(0.100000,-0.100000)"
fill="#000000" stroke="none">
<path d="M3817 5809 c-278 -45 -426 -427 -276 -709 40 -75 119 -154 188 -188
48 -23 68 -27 146 -27 78 0 98 4 146 28 110 54 202 175 234 308 76 326 -154
635 -438 588z"/>
<path d="M1920 5430 l0 -70 -100 0 -100 0 0 -100 0 -100 100 0 100 0 0 -70 0
-70 234 0 235 0 -19 -57 c-10 -32 -92 -299 -180 -593 -89 -294 -244 -807 -345
-1140 -101 -333 -256 -846 -345 -1140 -89 -294 -200 -659 -246 -810 -56 -186
-80 -277 -72 -281 22 -14 148 -62 152 -58 2 2 200 654 441 1449 240 795 454
1501 475 1570 21 69 87 285 146 480 58 195 109 360 113 367 3 6 67 -192 142
-440 720 -2383 1034 -3413 1040 -3421 8 -8 131 36 153 55 8 7 -6 57 -419 1419
-136 448 -291 961 -345 1140 -54 179 -175 578 -269 888 -94 310 -171 566 -171
568 0 2 119 4 265 4 l265 0 0 240 0 240 -625 0 -625 0 0 -70z"/>
<path d="M4216 4782 l-184 -218 -229 -92 -229 -93 -184 186 c-101 102 -187
185 -190 185 -3 -1 -49 -57 -103 -126 -98 -124 -98 -125 -80 -147 57 -72 567
-657 573 -657 4 0 127 57 275 126 147 69 271 122 275 117 3 -4 47 -64 97 -133
49 -69 180 -249 291 -401 l200 -277 -274 -1093 c-150 -602 -274 -1099 -274
-1105 0 -10 243 -36 364 -38 l38 -1 324 900 c364 1012 335 933 340 920 1 -5
130 -419 284 -920 155 -500 285 -913 288 -916 7 -7 318 24 326 31 2 3 -4 59
-14 125 -10 66 -98 684 -196 1374 l-178 1254 -426 387 c-829 753 -914 830
-922 830 -4 0 -90 -98 -192 -218z"/>
</g>
</svg>
